<?xml version="1.0" standalone="no"?><!DOCTYPE svg PUBLIC "-//W3C//DTD SVG 1.1//EN" "http://www.w3.org/Graphics/SVG/1.1/DTD/svg11.dtd"><svg t="1487228457766" class="icon" style="" viewBox="0 0 1024 1024" version="1.1" xmlns="http://www.w3.org/2000/svg" p-id="3832" xmlns:xlink="http://www.w3.org/1999/xlink" width="64" height="64"><defs><style type="text/css"></style></defs><path d="M163.397952 537.930579c0 21.985734 9.301853 43.811832 25.249057 59.354829 15.947204 15.527648 38.365796 24.570605 60.957327 24.570605 22.562878 0 44.981471-9.042957 60.956304-24.570605 15.947204-15.541975 25.249057-37.369096 25.249057-59.354829 0-21.969361-9.301853-43.810808-25.249057-59.337433-15.974833-15.544021-38.393425-24.585955-60.956304-24.585955-22.591531 0-45.010123 9.041934-60.957327 24.585955C172.700829 494.119771 163.397952 515.961218 163.397952 537.930579L163.397952 537.930579zM163.397952 537.930579" p-id="3833" fill="#46c355"></path><path d="M456.511733 277.651624c0 0-10.342556-10.473539-34.552957-10.473539-26.462698 0-47.898917 20.887726-47.898917 46.657646 0 28.369118 22.995737 41.080627 33.713846 44.330648 60.292178 38.279838 100.333126 104.276948 100.333126 179.577958 0 75.459622-40.155559 141.574413-100.680027 179.793876-12.161994 3.784186-33.366945 13.418614-33.366945 44.230364 0 25.768897 21.436218 46.656623 47.898917 46.656623 24.209378 0 34.552957-10.471492 34.552957-10.471492 88.575338-54.57292 147.567917-150.529365 147.567917-260.151042C604.07965 428.194292 545.087071 332.209194 456.511733 277.651624L456.511733 277.651624zM456.511733 277.651624" p-id="3834" fill="#46c355"></path><path d="M662.349775 104.877629c0 0-15.485693-5.677303-39.115879-5.677303-31.750121 0-57.492412 25.091468-57.492412 56.002478 0 21.8701 45.502333 47.64002 61.158918 55.613622 80.57513 79.215156 130.524752 188.027397 130.524752 308.323181 0 132.154879-60.349483 250.284323-155.337881 330.655815-21.263279 8.205892-36.34579 28.340465-36.34579 51.957349 0 30.897707 25.741267 55.973826 57.492412 55.973826 25.941835 0 41.802058-7.698333 41.802058-7.698333C791.486924 850.834078 872.433514 698.889481 872.433514 528.470113 872.433514 356.881107 790.300912 204.02679 662.349775 104.877629L662.349775 104.877629zM662.349775 104.877629" p-id="3835" fill="#46c355"></path></svg>